# xmcd
#
# Track frame offsets: 
#        150
#        9255
#        22380
#        39377
#        53175
#        63852
#        76260
#        91680
#        99830
#        124602
#        141960
#        185782
#
# Disc length: 2802 seconds
#
# Revision: 5
# Processed by: cddbd v1.5.2PL0 Copyright (c) Steve Scherf et al.
# Submitted via: ExactAudioCopy v0.99pb3
#
DISCID=920af00c
DTITLE=Charlie Byrd - The Guitar Artistry Of Charlie Byrd
DYEAR=1997
DGENRE=Jazz
TTITLE0=Taking A Chance On Love
TTITLE1=Moonlight In Vermont
TTITLE2=Speak Low
TTITLE3=Nuages
TTITLE4=Everthing I've Got
TTITLE5=Makin' Whoopie
TTITLE6=Django
TTITLE7=Nice Work If You Can Get It
TTITLE8=The House Of The Rising Sun
TTITLE9=Ring Them Harmonics
TTITLE10=Taboo
TTITLE11=To Ginny
EXTD=YEAR: 1997
EXTT0=
EXTT1=
EXTT2=
EXTT3=
EXTT4=
EXTT5=
EXTT6=
EXTT7=
EXTT8=
EXTT9=
EXTT10=
EXTT11=
PLAYORDER=
